<?xml version="1.0" encoding="utf-8"?>
<!-- Generator: Adobe Illustrator 26.0.1, SVG Export Plug-In . SVG Version: 6.00 Build 0)  -->
<svg version="1.1" id="Calque_1" xmlns="http://www.w3.org/2000/svg" xmlns:xlink="http://www.w3.org/1999/xlink" x="0px" y="0px"
	 viewBox="0 0 576 576" style="enable-background:new 0 0 576 576;" xml:space="preserve">
<style type="text/css">
	.st0{fill:#FFFFFF;}
</style>
<g>
	<g>
		<path class="st0" d="M467.2,228.1c-1.2-3.4-2.6-6.7-4-10c-29.6-70.1-98.3-116.3-175.1-116.4c-105.2,0.1-190.5,85.4-190.4,190.6
			c0,80.7,51,152.7,127.1,179.6c21.3,7.5,44.7-3.7,52.2-25c1.3-3.8,2.1-7.7,2.3-11.7v-64.1c-50.1-5.5-86.2-50.5-80.7-100.6
			c0.6-5.7,1.8-11.4,3.5-16.9l19.8-65.1c2-6.6,8.1-11.1,15-11.1h102.8c6.9,0,13,4.5,14.9,11.1l19.8,65.1
			c14.8,48.2-12.3,99.2-60.4,114c-5.5,1.7-11.1,2.8-16.8,3.5v64.1c1.1,22.6,20.3,39.9,42.9,38.8c4.1-0.2,8.1-1,12-2.4
			c52.5-18.8,91.7-58.2,111.6-105.9C481.2,323.4,483.8,274.7,467.2,228.1z"/>
		<path class="st0" d="M347.6,324.5L347.6,324.5c13.1-18.2,17.5-41.3,11.8-63c-18.9,30.7-67.5,31.1-105.6,17
			c-12.7-5-26.7-5.4-39.7-1.3c-0.7,16.9,4.3,33.5,14.2,47.2c13.1,18.6,34.2,29.9,56.9,30.7h5.2C313.4,354.4,334.5,343,347.6,324.5z"
			/>
	</g>
	<path class="st0" d="M288,572.8c-76.1,0-147.6-29.6-201.4-83.4S3.2,364.1,3.2,288S32.8,140.4,86.6,86.6S211.9,3.2,288,3.2
		s147.6,29.6,201.4,83.4s83.4,125.3,83.4,201.4s-29.6,147.6-83.4,201.4S364.1,572.8,288,572.8z M288,30C145.7,30,30,145.7,30,288
		s115.7,258,258,258s258-115.7,258-258S430.3,30,288,30z"/>
</g>
</svg>
